<svg width="16" height="16" viewBox="0 0 16 16" fill="none" xmlns="http://www.w3.org/2000/svg">
<g filter="url(#filter0_d_1_4)">
<path d="M3.24013 3.376C3.65413 3.376 4.02313 3.43 4.34713 3.538C4.67113 3.64 4.94113 3.79 5.15713 3.988C5.37913 4.18 5.54713 4.414 5.66113 4.69C5.77513 4.96 5.83213 5.266 5.83213 5.608C5.83213 5.878 5.79013 6.148 5.70613 6.418C5.62813 6.688 5.49613 6.934 5.31013 7.156C5.13013 7.378 4.89013 7.558 4.59013 7.696C4.29013 7.828 3.91813 7.894 3.47413 7.894H2.53813V10H1.23313V3.376H3.24013ZM3.46513 6.634C3.66313 6.634 3.82813 6.601 3.96013 6.535C4.09213 6.469 4.19413 6.385 4.26613 6.283C4.34413 6.181 4.39813 6.076 4.42813 5.968C4.46413 5.854 4.48213 5.749 4.48213 5.653C4.48213 5.581 4.47013 5.491 4.44613 5.383C4.42813 5.269 4.38613 5.155 4.32013 5.041C4.25413 4.927 4.15213 4.831 4.01413 4.753C3.88213 4.675 3.70213 4.636 3.47413 4.636H2.53813V6.634H3.46513ZM4.68913 7.444L6.32713 10H4.80613L3.13213 7.48L4.68913 7.444ZM12.9975 9.334C12.9195 9.418 12.7965 9.505 12.6285 9.595C12.4605 9.679 12.2655 9.757 12.0435 9.829C11.8275 9.901 11.6055 9.958 11.3775 10C11.1495 10.048 10.9335 10.072 10.7295 10.072C10.1895 10.072 9.70353 9.994 9.27153 9.838C8.83953 9.676 8.47053 9.454 8.16453 9.172C7.85853 8.884 7.62453 8.545 7.46253 8.155C7.30053 7.765 7.21953 7.339 7.21953 6.877C7.21953 6.271 7.30953 5.746 7.48953 5.302C7.67553 4.852 7.92453 4.48 8.23653 4.186C8.55453 3.886 8.91753 3.664 9.32553 3.52C9.73953 3.376 10.1715 3.304 10.6215 3.304C11.0475 3.304 11.4375 3.352 11.7915 3.448C12.1455 3.538 12.4455 3.652 12.6915 3.79L12.2685 5.005C12.1605 4.945 12.0165 4.885 11.8365 4.825C11.6565 4.765 11.4735 4.717 11.2875 4.681C11.1015 4.639 10.9365 4.618 10.7925 4.618C10.4325 4.618 10.1145 4.663 9.83853 4.753C9.56253 4.843 9.32853 4.978 9.13653 5.158C8.95053 5.338 8.80953 5.563 8.71353 5.833C8.61753 6.097 8.56953 6.406 8.56953 6.76C8.56953 7.072 8.62353 7.354 8.73153 7.606C8.83953 7.852 8.98953 8.062 9.18153 8.236C9.37953 8.41 9.61053 8.542 9.87453 8.632C10.1445 8.722 10.4415 8.767 10.7655 8.767C10.9515 8.767 11.1225 8.755 11.2785 8.731C11.4345 8.701 11.5665 8.656 11.6745 8.596V7.795H10.5315V6.535H12.9975V9.334ZM14.21 9.352C14.21 9.166 14.276 9.01 14.408 8.884C14.546 8.758 14.696 8.695 14.858 8.695C15.008 8.695 15.149 8.758 15.281 8.884C15.419 9.01 15.488 9.166 15.488 9.352C15.488 9.55 15.419 9.709 15.281 9.829C15.149 9.943 15.008 10 14.858 10C14.696 10 14.546 9.943 14.408 9.829C14.276 9.709 14.21 9.55 14.21 9.352Z" fill="white"/>
</g>
<defs>
<filter id="filter0_d_1_4" x="1.23312" y="3.30399" width="14.7549" height="7.26801" filterUnits="userSpaceOnUse" color-interpolation-filters="sRGB">
<feFlood flood-opacity="0" result="BackgroundImageFix"/>
<feColorMatrix in="SourceAlpha" type="matrix" values="0 0 0 0 0 0 0 0 0 0 0 0 0 0 0 0 0 0 127 0" result="hardAlpha"/>
<feOffset dx="0.5" dy="0.5"/>
<feComposite in2="hardAlpha" operator="out"/>
<feColorMatrix type="matrix" values="0 0 0 0 0.678431 0 0 0 0 0 0 0 0 0 0 0 0 0 0.92 0"/>
<feBlend mode="normal" in2="BackgroundImageFix" result="effect1_dropShadow_1_4"/>
<feBlend mode="normal" in="SourceGraphic" in2="effect1_dropShadow_1_4" result="shape"/>
</filter>
</defs>
</svg>
