<svg width="16" height="16" viewBox="0 0 16 16" fill="none" xmlns="http://www.w3.org/2000/svg">
<g filter="url(#filter0_d_107_3)">
<path d="M3.24013 4.376C3.65413 4.376 4.02313 4.43 4.34713 4.538C4.67113 4.64 4.94113 4.79 5.15713 4.988C5.37913 5.18 5.54713 5.414 5.66113 5.69C5.77513 5.96 5.83213 6.266 5.83213 6.608C5.83213 6.878 5.79013 7.148 5.70613 7.418C5.62813 7.688 5.49613 7.934 5.31013 8.156C5.13013 8.378 4.89013 8.558 4.59013 8.696C4.29013 8.828 3.91813 8.894 3.47413 8.894H2.53813V11H1.23313V4.376H3.24013ZM3.46513 7.634C3.66313 7.634 3.82813 7.601 3.96013 7.535C4.09213 7.469 4.19413 7.385 4.26613 7.283C4.34413 7.181 4.39813 7.076 4.42813 6.968C4.46413 6.854 4.48213 6.749 4.48213 6.653C4.48213 6.581 4.47013 6.491 4.44613 6.383C4.42813 6.269 4.38613 6.155 4.32013 6.041C4.25413 5.927 4.15213 5.831 4.01413 5.753C3.88213 5.675 3.70213 5.636 3.47413 5.636H2.53813V7.634H3.46513ZM4.68913 8.444L6.32713 11H4.80613L3.13213 8.48L4.68913 8.444ZM12.9975 10.334C12.9195 10.418 12.7965 10.505 12.6285 10.595C12.4605 10.679 12.2655 10.757 12.0435 10.829C11.8275 10.901 11.6055 10.958 11.3775 11C11.1495 11.048 10.9335 11.072 10.7295 11.072C10.1895 11.072 9.70353 10.994 9.27153 10.838C8.83953 10.676 8.47053 10.454 8.16453 10.172C7.85853 9.884 7.62453 9.545 7.46253 9.155C7.30053 8.765 7.21953 8.339 7.21953 7.877C7.21953 7.271 7.30953 6.746 7.48953 6.302C7.67553 5.852 7.92453 5.48 8.23653 5.186C8.55453 4.886 8.91753 4.664 9.32553 4.52C9.73953 4.376 10.1715 4.304 10.6215 4.304C11.0475 4.304 11.4375 4.352 11.7915 4.448C12.1455 4.538 12.4455 4.652 12.6915 4.79L12.2685 6.005C12.1605 5.945 12.0165 5.885 11.8365 5.825C11.6565 5.765 11.4735 5.717 11.2875 5.681C11.1015 5.639 10.9365 5.618 10.7925 5.618C10.4325 5.618 10.1145 5.663 9.83853 5.753C9.56253 5.843 9.32853 5.978 9.13653 6.158C8.95053 6.338 8.80953 6.563 8.71353 6.833C8.61753 7.097 8.56953 7.406 8.56953 7.76C8.56953 8.072 8.62353 8.354 8.73153 8.606C8.83953 8.852 8.98953 9.062 9.18153 9.236C9.37953 9.41 9.61053 9.542 9.87453 9.632C10.1445 9.722 10.4415 9.767 10.7655 9.767C10.9515 9.767 11.1225 9.755 11.2785 9.731C11.4345 9.701 11.5665 9.656 11.6745 9.596V8.795H10.5315V7.535H12.9975V10.334ZM14.21 10.352C14.21 10.166 14.276 10.01 14.408 9.884C14.546 9.758 14.696 9.695 14.858 9.695C15.008 9.695 15.149 9.758 15.281 9.884C15.419 10.01 15.488 10.166 15.488 10.352C15.488 10.55 15.419 10.709 15.281 10.829C15.149 10.943 15.008 11 14.858 11C14.696 11 14.546 10.943 14.408 10.829C14.276 10.709 14.21 10.55 14.21 10.352Z" fill="white"/>
</g>
<defs>
<filter id="filter0_d_107_3" x="1.23312" y="4.30399" width="14.7549" height="7.26801" filterUnits="userSpaceOnUse" color-interpolation-filters="sRGB">
<feFlood flood-opacity="0" result="BackgroundImageFix"/>
<feColorMatrix in="SourceAlpha" type="matrix" values="0 0 0 0 0 0 0 0 0 0 0 0 0 0 0 0 0 0 127 0" result="hardAlpha"/>
<feOffset dx="0.5" dy="0.5"/>
<feComposite in2="hardAlpha" operator="out"/>
<feColorMatrix type="matrix" values="0 0 0 0 0.678431 0 0 0 0 0 0 0 0 0 0 0 0 0 0.92 0"/>
<feBlend mode="normal" in2="BackgroundImageFix" result="effect1_dropShadow_107_3"/>
<feBlend mode="normal" in="SourceGraphic" in2="effect1_dropShadow_107_3" result="shape"/>
</filter>
</defs>
</svg>
