<svg width="154" height="75" viewBox="0 0 154 75" fill="none" xmlns="http://www.w3.org/2000/svg">
<g filter="url(#filter0_d_1_7)">
<path d="M21.892 0.815994C26.216 0.815994 30.07 1.37999 33.454 2.50799C36.838 3.57333 39.658 5.14 41.914 7.208C44.2327 9.21333 45.9873 11.6573 47.178 14.54C48.3687 17.36 48.964 20.556 48.964 24.128C48.964 26.948 48.5253 29.768 47.648 32.588C46.8333 35.408 45.4547 37.9773 43.512 40.296C41.632 42.6147 39.1253 44.4947 35.992 45.936C32.8587 47.3147 28.9733 48.004 24.336 48.004H14.56V70H0.930001V0.815994H21.892ZM24.242 34.844C26.31 34.844 28.0333 34.4993 29.412 33.81C30.7907 33.1207 31.856 32.2433 32.608 31.178C33.4227 30.1127 33.9867 29.016 34.3 27.888C34.676 26.6973 34.864 25.6007 34.864 24.598C34.864 23.846 34.7387 22.906 34.488 21.778C34.3 20.5873 33.8613 19.3967 33.172 18.206C32.4827 17.0153 31.4173 16.0127 29.976 15.198C28.5973 14.3833 26.7173 13.976 24.336 13.976H14.56V34.844H24.242ZM37.026 43.304L54.134 70H38.248L20.764 43.68L37.026 43.304ZM123.803 63.044C122.988 63.9213 121.703 64.83 119.949 65.77C118.194 66.6473 116.157 67.462 113.839 68.214C111.583 68.966 109.264 69.5613 106.883 70C104.501 70.5013 102.245 70.752 100.115 70.752C94.4747 70.752 89.3987 69.9373 84.8867 68.308C80.3747 66.616 76.5207 64.2973 73.3247 61.352C70.1287 58.344 67.6847 54.8033 65.9927 50.73C64.3007 46.6567 63.4547 42.2073 63.4547 37.382C63.4547 31.0527 64.3947 25.5693 66.2747 20.932C68.2174 16.232 70.818 12.3467 74.0767 9.276C77.398 6.14266 81.1894 3.824 85.4507 2.32C89.7747 0.815998 94.2867 0.0639983 98.9867 0.0639983C103.436 0.0639983 107.509 0.565331 111.207 1.568C114.904 2.50799 118.037 3.69866 120.607 5.13999L116.189 17.83C115.061 17.2033 113.557 16.5767 111.677 15.95C109.797 15.3233 107.885 14.822 105.943 14.446C104 14.0073 102.277 13.788 100.773 13.788C97.0127 13.788 93.6914 14.258 90.8087 15.198C87.926 16.138 85.482 17.548 83.4767 19.428C81.534 21.308 80.0614 23.658 79.0587 26.478C78.056 29.2353 77.5547 32.4627 77.5547 36.16C77.5547 39.4187 78.1187 42.364 79.2467 44.996C80.3747 47.5653 81.9414 49.7587 83.9467 51.576C86.0147 53.3933 88.4274 54.772 91.1847 55.712C94.0047 56.652 97.1067 57.122 100.491 57.122C102.433 57.122 104.219 56.9967 105.849 56.746C107.478 56.4327 108.857 55.9627 109.985 55.336V46.97H98.0467V33.81H123.803V63.044ZM136.466 63.232C136.466 61.2893 137.156 59.66 138.534 58.344C139.976 57.028 141.542 56.37 143.234 56.37C144.801 56.37 146.274 57.028 147.652 58.344C149.094 59.66 149.814 61.2893 149.814 63.232C149.814 65.3 149.094 66.9607 147.652 68.214C146.274 69.4047 144.801 70 143.234 70C141.542 70 139.976 69.4047 138.534 68.214C137.156 66.9607 136.466 65.3 136.466 63.232Z" fill="white"/>
</g>
<defs>
<filter id="filter0_d_1_7" x="0.929993" y="0.0639954" width="152.884" height="74.688" filterUnits="userSpaceOnUse" color-interpolation-filters="sRGB">
<feFlood flood-opacity="0" result="BackgroundImageFix"/>
<feColorMatrix in="SourceAlpha" type="matrix" values="0 0 0 0 0 0 0 0 0 0 0 0 0 0 0 0 0 0 127 0" result="hardAlpha"/>
<feOffset dx="4" dy="4"/>
<feComposite in2="hardAlpha" operator="out"/>
<feColorMatrix type="matrix" values="0 0 0 0 0.678431 0 0 0 0 0 0 0 0 0 0 0 0 0 0.92 0"/>
<feBlend mode="normal" in2="BackgroundImageFix" result="effect1_dropShadow_1_7"/>
<feBlend mode="normal" in="SourceGraphic" in2="effect1_dropShadow_1_7" result="shape"/>
</filter>
</defs>
</svg>
