<svg width="1249" height="375" viewBox="0 0 1249 375" fill="none" xmlns="http://www.w3.org/2000/svg">
<g filter="url(#filter0_i_10_91)">
<path d="M961.641 179.278C919.683 206.883 688.5 214 634.309 247.5C580.118 281 481 252 425 281.5C369 311 285.5 283 236.5 317.5C187.5 352 105.5 327 67.5003 352C29.5003 377 7.50029 364 7.50029 364M961.641 179.278C1003.6 151.673 967.37 63.3553 919.239 50.0194C871.108 36.6835 674.537 34.5111 634.309 54.1763C594.081 73.8415 581.393 136.042 624.474 162.23C667.554 188.418 961.641 179.278 961.641 179.278ZM961.641 179.278C1052.16 168.72 1091.43 163.434 1116.75 140.486C1142.07 117.539 1139 73.5388 1164 50.0194C1189 26.5 1241 7.99999 1241 7.99999" stroke="url(#paint0_linear_10_91)" stroke-width="14" stroke-linecap="round"/>
</g>
<defs>
<filter id="filter0_i_10_91" x="0.499146" y="0.998108" width="1247.68" height="379.277" filterUnits="userSpaceOnUse" color-interpolation-filters="sRGB">
<feFlood flood-opacity="0" result="BackgroundImageFix"/>
<feBlend mode="normal" in="SourceGraphic" in2="BackgroundImageFix" result="shape"/>
<feColorMatrix in="SourceAlpha" type="matrix" values="0 0 0 0 0 0 0 0 0 0 0 0 0 0 0 0 0 0 127 0" result="hardAlpha"/>
<feOffset dx="0.178692" dy="9.82807"/>
<feGaussianBlur stdDeviation="2.94842"/>
<feComposite in2="hardAlpha" operator="arithmetic" k2="-1" k3="1"/>
<feColorMatrix type="matrix" values="0 0 0 0 0.678431 0 0 0 0 0 0 0 0 0 0 0 0 0 0.25 0"/>
<feBlend mode="normal" in2="shape" result="effect1_innerShadow_10_91"/>
</filter>
<linearGradient id="paint0_linear_10_91" x1="-31.5" y1="348" x2="1239.5" y2="-165.706" gradientUnits="userSpaceOnUse">
<stop stop-color="#2A0000"/>
<stop offset="1" stop-color="#CBCBCB" stop-opacity="0"/>
</linearGradient>
</defs>
</svg>
